<svg width="1280" height="640" viewBox="0 0 1280 640" fill="none" xmlns="http://www.w3.org/2000/svg" role="img" aria-label="MatchRight project card">
  <defs>
    <radialGradient id="glow" cx="20%" cy="20%" r="80%">
      <stop offset="0%" stop-color="#b084ff" stop-opacity="0.55"/>
      <stop offset="45%" stop-color="#b084ff" stop-opacity="0.14"/>
      <stop offset="100%" stop-color="#071016" stop-opacity="1"/>
    </radialGradient>
    <linearGradient id="panel" x1="0" x2="1" y1="0" y2="1">
      <stop offset="0%" stop-color="#11231f"/>
      <stop offset="55%" stop-color="#0b1418"/>
      <stop offset="100%" stop-color="#081016"/>
    </linearGradient>
    <filter id="softShadow" x="-20%" y="-20%" width="140%" height="140%">
      <feDropShadow dx="0" dy="24" stdDeviation="34" flood-color="#b084ff" flood-opacity="0.16"/>
    </filter>
  </defs>
  <rect width="1280" height="640" rx="48" fill="url(#panel)"/>
  <rect width="1280" height="640" rx="48" fill="url(#glow)"/>
  <g opacity="0.14">
    <path d="M0 120H1280M0 240H1280M0 360H1280M0 480H1280M160 0V640M320 0V640M480 0V640M640 0V640M800 0V640M960 0V640M1120 0V640" stroke="#d9fff2"/>
  </g>
  <g filter="url(#softShadow)">
    <rect x="54" y="54" width="1172" height="532" rx="38" fill="rgba(4,12,16,0.52)" stroke="rgba(255,255,255,0.12)"/>
  </g>
  <text x="54" y="126" fill="#b084ff" font-size="18" font-weight="800" letter-spacing="4" font-family="Inter,Segoe UI,Arial">LAZYPANDA902 · PORTFOLIO PROJECT</text>
  <text x="54" y="198" fill="#f4fff9" font-size="62" font-weight="900" font-family="Inter,Segoe UI,Arial">MatchRight</text>
  <text x="58" y="224" fill="#b7c8c1" font-size="24" font-family="Inter,Segoe UI,Arial">Resume/job semantic matching with FastAPI, Streamlit, and transformer embeddings.</text>
  
  <rect x="54" y="242" width="72" height="30" rx="15" fill="rgba(255,255,255,0.08)" stroke="rgba(255,255,255,0.12)"/>
  <text x="68" y="262" fill="#d7fff0" font-size="13" font-family="Inter,Segoe UI,Arial">python</text>
  <rect x="136" y="242" width="72" height="30" rx="15" fill="rgba(255,255,255,0.08)" stroke="rgba(255,255,255,0.12)"/>
  <text x="150" y="262" fill="#d7fff0" font-size="13" font-family="Inter,Segoe UI,Arial">nlp</text>
  <rect x="218" y="242" width="74" height="30" rx="15" fill="rgba(255,255,255,0.08)" stroke="rgba(255,255,255,0.12)"/>
  <text x="232" y="262" fill="#d7fff0" font-size="13" font-family="Inter,Segoe UI,Arial">fastapi</text>
  <rect x="302" y="242" width="90" height="30" rx="15" fill="rgba(255,255,255,0.08)" stroke="rgba(255,255,255,0.12)"/>
  <text x="316" y="262" fill="#d7fff0" font-size="13" font-family="Inter,Segoe UI,Arial">streamlit</text>
  <rect x="402" y="242" width="114" height="30" rx="15" fill="rgba(255,255,255,0.08)" stroke="rgba(255,255,255,0.12)"/>
  <text x="416" y="262" fill="#d7fff0" font-size="13" font-family="Inter,Segoe UI,Arial">career-tools</text>
  <g transform="translate(880 116)">
    <circle cx="142" cy="142" r="126" fill="rgba(0,0,0,0.26)" stroke="#b084ff" stroke-opacity="0.24"/>
    <circle cx="142" cy="142" r="92" stroke="#b084ff" stroke-opacity="0.28"/>
    <circle cx="142" cy="142" r="54" stroke="#b084ff" stroke-opacity="0.36"/>
    <path d="M142 142 L142 16 A126 126 0 0 1 246 214 Z" fill="#b084ff" fill-opacity="0.26"/>
    <circle cx="142" cy="142" r="34" fill="#071016" stroke="#b084ff" stroke-opacity="0.62"/>
    <text x="142" y="137" fill="#b084ff" font-size="24" font-weight="900" text-anchor="middle" font-family="Inter,Segoe UI,Arial">LP</text>
    <text x="142" y="158" fill="#d9fff2" font-size="10" font-weight="700" letter-spacing="2" text-anchor="middle" font-family="Inter,Segoe UI,Arial">CONTROL</text>
    <circle cx="58" cy="114" r="7" fill="#b084ff"/>
    <circle cx="208" cy="80" r="7" fill="#66d9ff"/>
    <circle cx="238" cy="202" r="7" fill="#b084ff"/>
    <circle cx="88" cy="232" r="7" fill="#b084ff"/>
  </g>
  <text x="54" y="536" fill="#d7fff0" font-size="20" font-weight="700" font-family="Inter,Segoe UI,Arial">github.com/LazyPanda902/matchright-resume-job-matcher</text>
  <text x="54" y="566" fill="#7f9990" font-size="16" font-family="Inter,Segoe UI,Arial">Built for practical IT support, homelab automation, and portfolio proof-of-work.</text>
</svg>
